<?xml version="1.0" standalone="no"?>
<!DOCTYPE svg PUBLIC "-//W3C//DTD SVG 20010904//EN"
 "http://www.w3.org/TR/2001/REC-SVG-20010904/DTD/svg10.dtd">
<svg version="1.0" xmlns="http://www.w3.org/2000/svg"
 width="700.000000pt" height="700.000000pt" viewBox="0 0 700.000000 700.000000"
 preserveAspectRatio="xMidYMid meet">
<metadata>
Created by potrace 1.14, written by Peter Selinger 2001-2017
</metadata>
<g transform="translate(0.000000,700.000000) scale(0.100000,-0.100000)"
fill="#000000" stroke="none">
<path d="M899 5271 c-23 -58 -47 -112 -52 -118 -5 -7 -7 -13 -4 -13 3 0 -5
-26 -19 -57 -39 -88 -38 -86 -109 -268 -37 -93 -80 -202 -96 -241 l-30 -71
-208 0 c-115 0 -213 -3 -218 -6 -5 -3 -9 -76 -9 -169 l1 -163 140 -5 c170 -6
168 -2 97 -152 -98 -204 -231 -659 -288 -981 -3 -18 -9 -50 -14 -72 -5 -22
-11 -58 -14 -80 -4 -22 -13 -78 -21 -125 -14 -82 -24 -152 -31 -215 -20 -177
-23 -529 -4 -576 43 -114 93 -185 152 -215 85 -44 199 -9 399 124 314 208 559
481 559 624 0 17 -12 18 -150 18 -127 0 -150 2 -150 15 0 26 -35 16 -116 -33
-43 -27 -119 -74 -169 -104 -87 -53 -208 -118 -221 -118 -6 0 2 209 11 250 2
13 7 42 10 65 4 22 8 51 10 65 3 14 7 48 10 75 13 105 74 351 94 380 9 12 51
132 131 380 58 179 148 420 190 510 10 22 30 67 43 100 l25 60 449 0 448 0 3
183 2 182 -365 0 -365 0 11 27 c6 15 17 41 24 58 19 40 113 282 168 430 48
130 71 211 82 291 l6 50 -185 1 -185 0 -42 -106z"/>
<path d="M3017 4974 c-1 -1 -29 -5 -62 -8 -143 -16 -203 -49 -299 -162 -115
-134 -213 -328 -311 -615 -94 -274 -195 -701 -220 -927 -1 -12 -4 -24 -6 -25
-18 -12 -153 -47 -181 -47 l-35 0 2 -212 c1 -117 3 -216 3 -219 1 -3 43 -5 93
-4 84 2 91 1 99 -19 12 -29 41 -162 46 -216 11 -103 50 -198 121 -299 119
-169 352 -397 449 -441 122 -54 284 -84 459 -84 167 -1 251 39 355 167 36 44
70 85 75 91 6 6 48 56 94 111 113 135 174 206 188 220 9 10 8 18 -5 36 -9 13
-18 26 -22 29 -3 3 -21 25 -40 50 -19 25 -37 47 -40 50 -3 3 -34 41 -69 85
-34 44 -67 80 -71 80 -5 0 -93 -96 -195 -213 l-187 -212 -52 -1 c-28 0 -120 0
-205 0 l-154 0 -36 34 c-20 18 -63 55 -96 83 -223 184 -293 302 -293 491 l0
90 51 24 c75 34 310 171 465 269 234 150 439 298 596 432 88 76 392 385 428
437 63 89 66 154 12 267 -60 126 -299 388 -479 523 -135 102 -217 129 -410
135 -36 1 -66 1 -68 0z m-42 -457 c28 1 82 3 120 6 76 4 169 -13 219 -41 42
-23 150 -109 215 -171 l54 -51 -38 -46 c-50 -61 -224 -237 -304 -308 -157
-139 -308 -234 -583 -369 -97 -48 -179 -87 -183 -87 -17 0 22 171 71 312 20
57 49 146 65 198 94 310 179 493 278 603 l26 29 5 -39 5 -38 50 2z"/>
<path d="M5080 4853 c-132 -89 -250 -239 -364 -463 -89 -174 -241 -585 -270
-730 -3 -14 -7 -34 -10 -45 -22 -89 -58 -263 -72 -345 -10 -59 -12 -753 -3
-816 16 -101 17 -107 34 -189 50 -243 141 -506 198 -571 41 -47 61 -53 106
-30 36 19 133 123 196 211 28 38 125 169 218 292 140 186 307 430 307 449 0 2
11 21 23 42 13 20 74 134 134 252 100 196 223 429 248 472 6 10 44 74 85 144
87 148 93 158 143 246 30 55 41 66 60 64 21 -3 25 5 47 88 12 50 26 95 30 99
8 10 -6 -92 -18 -125 -5 -13 -10 -48 -11 -78 -2 -30 -4 -57 -6 -60 -3 -4 -22
-111 -41 -225 -16 -98 -28 -161 -49 -250 -13 -55 -26 -116 -30 -135 -3 -19
-10 -55 -15 -80 -5 -25 -12 -61 -14 -80 -3 -19 -8 -46 -11 -59 -2 -14 -9 -59
-15 -100 -6 -42 -12 -87 -14 -101 -7 -39 -25 -161 -30 -201 -16 -113 -21 -223
-21 -464 0 -238 2 -277 19 -333 25 -82 62 -116 118 -108 22 3 44 8 50 12 5 4
27 8 47 11 107 12 242 126 412 348 151 196 329 444 329 458 0 5 23 41 50 81
28 39 53 88 56 108 l6 36 -57 -2 c-31 -1 -60 1 -64 4 -13 9 -71 98 -71 109 0
6 -3 11 -8 11 -4 0 -18 20 -32 45 -14 25 -29 44 -35 42 -5 -2 -50 -67 -100
-145 -158 -249 -383 -560 -386 -535 -6 52 10 221 46 481 9 62 32 202 60 362
19 106 125 630 140 695 8 33 22 120 30 193 18 157 38 269 66 372 30 109 29 99
29 299 1 140 -2 186 -12 192 -14 10 -16 10 -287 11 l-195 1 -18 -69 c-25 -88
-93 -234 -110 -234 -7 0 -25 10 -40 23 -36 30 -225 160 -263 181 -16 9 -46 26
-65 38 -109 65 -212 111 -275 123 -16 4 -73 8 -125 11 l-95 5 -55 -38z m189
-433 c32 0 141 -39 174 -62 62 -43 240 -193 304 -256 38 -38 39 -33 -37 -147
-41 -61 -204 -336 -223 -375 -4 -8 -17 -31 -29 -50 -43 -72 -117 -212 -206
-391 -50 -101 -119 -231 -153 -289 -57 -95 -361 -511 -377 -517 -4 -2 -8 19
-9 46 -1 28 -11 66 -24 92 -22 43 -23 52 -23 304 0 234 6 373 18 445 3 14 9
57 15 95 6 39 13 81 16 95 2 14 7 39 11 55 11 60 87 323 124 435 54 160 100
271 161 386 74 142 110 190 189 257 l45 38 3 -80 c2 -71 5 -81 21 -81z"/>
</g>
</svg>
