<?xml version="1.0" encoding="utf-8"?>
<svg version="1.1" xmlns="http://www.w3.org/2000/svg" viewBox="0 0 360 150">
<style type="text/css">
	.st0 path{fill:#802601;}
	.st1 path{fill:url(#bg)}
</style>
<g class="st0">
	<path d="M359.7,37.3c-2.5,0.4-5,0.9-7.6,1.3c0,13.4,0,26.7,0,40.1c-4.4,1.2-8.8,1.5-13.3,2.6c-3.5-3.5-7-7-10.6-10.7
		c-0.3,1.3-0.6,2.6-0.9,3.8c-1.4,6.4-5.4,10.4-11.7,11.9c-2.3,0.5-4.7,0.8-7.1,0.9c-2.8,0.1-5-1-7-3c-4.7-4.8-9.4-9.5-14.2-14.2
		c-2.5,0.5-5,1.1-7.7,1.7c-0.1,6.5,0,13.2-0.1,20.1c-4.3,0.8-8.6,1.5-12.9,2.3c-0.8-0.8-1.5-1.5-2.5-2.4c0,1.1,0,1.9,0,2.8
		c-4.4,0.8-8.7,1.5-13.3,2.3c-1.6-1.8-3.3-3.7-5-5.6c-0.2,0.1-0.4,0.2-0.6,0.3c-0.2,2.1-0.4,4.2-0.6,6.4
		c-6.1,1.4-12.3,2.1-18.4,3.3c-6.1,1.2-12.2,2.2-18.5,3.3c-3.5-3.4-7-6.9-10.8-10.6c-0.4,2.4-0.2,4.4-0.2,6.4c0,2,0,4,0,6.1
		c-4.4,0.8-8.6,1.5-13.1,2.3c-4.6-4.7-9.4-9.5-14.2-14.5c0-10.3,0-20.7,0-31.2c-2.5-2.5-5-4.8-7.4-7.2c0-3.4,0-6.7,0-10.2
		c9.4-1.7,18.8-3.3,28.2-5c1,0.9,1.9,1.7,3.1,2.8c0.1-1.2,0.2-2.2,0.3-3.4c7.2-1.3,14.3-2.5,21.8-3.8c2.2,2.4,4.4,4.8,6.6,7.2
		c0.2-0.1,0.3-0.1,0.5-0.2c0.4-2.8,0.8-5.5,1.2-8.4c6.3-1.1,12.5-2.2,18.8-3.3c3.3,3.2,6.4,6.3,9.9,9.8c0-4.1,0-7.7,0-11.5
		c6.3-1.1,12.4-2.4,18.6-3.2c3.1-0.4,6.1,0.5,8.4,3.1c1.6,1.9,3.5,3.5,5.4,5.5c0.4-1.4,0.7-2.5,1.1-3.7c1.6-5.6,5.3-9.1,10.9-10.6
		c3.3-0.9,6.6-1.1,9.9-0.3c2.1,0.5,3.8,1.5,5.3,3c1.5,1.5,2.9,2.9,4.6,4.6c0.6-1.8,0.3-3.4,0.4-4.9c0.1-1.6,0-3.2,0-5
		c9.5-1.7,19-3.4,28.5-5c4.8,4.7,9.5,9.4,14.2,14.1C359.7,30.6,359.7,34,359.7,37.3z"/>
	<path d="M1.5,73.7c3.4-0.6,6.9-1.1,10.3-1.7c0.9-0.1,1.7-0.3,2.6-0.4c4.7,4.8,9.5,9.5,14.4,14.4c0,9.3,0,18.9,0,28.9
		c2.1-15.9,4.1-31.3,6.1-47c6.2-1.1,12.5-2.2,18.9-3.4c3,3.1,6.1,6.3,9.2,9.5c0.2-0.1,0.3-0.1,0.5-0.2c0.1-3.6,0-7.3,0.1-11
		c5.6-1,11.1-1.9,16.8-2.9c1.8,1.8,3.7,3.6,5.7,5.6c0.3-2.3,0.6-4.4,0.9-6.7c5.6-1,11.2-2,16.7-2.9c4.8,4.8,9.5,9.5,14.2,14.1
		c0,9.6,0,19,0,28.5c2.3-15.3,4.2-30.6,6.3-46.2c6.2-1.1,12.5-2.2,18.8-3.3c4.6,4.8,9.2,9.5,14.4,14.8c2.4,15.4,4.8,31.7,7.4,48.3
		c-4.5,0.8-8.8,1.6-13.2,2.4c-1.8-1.7-3.6-3.5-5.7-5.6c-0.2,2.5-0.4,4.5-0.6,6.7c-4.5,0.8-8.8,1.6-13.5,2.4
		c-4.3-4.4-8.7-8.9-13.4-13.7c0,5.6,0,10.7,0,16c-3.9,0.7-7.6,1.4-11.4,2c-1.3-1.2-2.5-2.4-4-3.9c-0.3,1.7-0.5,3.2-0.8,4.7
		c-2.7,0.5-5.2,0.9-7.9,1.4c-1.5-1.5-3.1-3-4.9-4.8c0,2.1,0,3.7,0,5.6c-3.8,0.7-7.6,1.4-11.3,2.1c-0.8-0.8-1.6-1.5-2.6-2.5
		c0,1,0,1.8,0,2.9c-4.4,0.8-8.8,1.6-13.4,2.4c-1.6-1.7-3.3-3.5-5.3-5.6c-0.2,1.3-0.4,2.3-0.5,3.3c-0.1,1-0.1,2.1-0.2,3.4
		c-4.5,0.8-9,1.6-13.8,2.5c-4.4-4.4-8.7-8.9-13.3-13.6c0,5.4,0,10.6,0,15.9c-4.2,0.8-8.3,1.6-12.4,2.3c-0.3,0-0.6,0-1,0
			c-0.2-0.3-0.4-0.7-0.6-0.9c-2.4-2.5-4.7-5-7.2-7.3c-2-1.9-4-3.7-6.1-5.6C1.5,107.5,1.5,90.6,1.5,73.7z"/>
</g>
<g class="st1">
	<linearGradient id="bg" x1="0" y1="0" x2="0" y2="100%"><stop stop-color="#fdde00" offset="10%"/><stop stop-color="#fd6500" offset="90%"/></linearGradient>
	<path d="M14.2,71.1v50.4l-13.1,2.3V73.4L14.2,71.1z"/>
	<path d="M53.4,64.2l7.5,49.1l-13.4,2.4l-0.7-8.9
		l-4.7,0.8l-0.8,9.2l-13.6,2.4l6.7-51.6L53.4,64.2z M46.4,97.8c-0.7-5.6-1.3-12.5-2-20.8c-1.3,9.9-2.2,17.1-2.5,21.6L46.4,97.8z"/>
	<path d="M103.6,55.3v50.4l-11.5,2l0-34l-4.6,34.8
		l-8.1,1.4l-4.8-32.4l0,33.3l-11.5,2V62.5l17-3c0.9,5.4,2.5,17,3.4,22.9l3-24.1L103.6,55.3z"/>
	<path d="M142.7,48.4l7.5,49.1l-13.4,2.4l-0.7-8.9
		l-4.7,0.8l-0.8,9.2l-13.6,2.4l6.7-51.6L142.7,48.4z M135.8,82.1c-0.7-5.6-1.3-12.5-2-20.8c-1.3,9.9-2.2,17.1-2.5,21.6L135.8,82.1z"
		/>
	<path d="M190.1,40.1v10.1l-7.8,1.4v40.3l-13.1,2.3
		V53.9l-7.8,1.4V45.1L190.1,40.1z"/>
	<path d="M193.1,39.6l21.9-3.9v10.1l-8.7,1.5v9.6
		l8.2-1.4V65l-8.2,1.4v11.1l9.6-1.7V86l-22.7,4V39.6z"/>
	<path d="M242.2,30.9l7.5,49.1l-13.4,2.4l-0.7-8.9
		l-4.7,0.8l-0.8,9.2l-13.6,2.4l6.7-51.6L242.2,30.9z M235.3,64.5c-0.7-5.6-1.3-12.5-2-20.8c-1.3,9.9-2.2,17.1-2.5,21.6L235.3,64.5z"
		/>
	<path d="M251.9,29.2c7.7-0.3,24.8-8.1,27.7,2.2
		c1.1,14.2,3.2,23.8-14.6,25.6v20.3l-13.1,2.3V29.2z M265.1,35.5v12.8c5.3,0.2,4.1-5.7,4.2-9.4C269.2,35.4,268.5,35,265.1,35.5z"/>
	<path d="M313.9,47.8c0,13.3-2.2,22.4-15.2,24.6
		c-13.1,2.5-15.2-6.7-15.2-19.3c0-11.2-0.6-25.4,7.7-30.5c7.2-4.5,21.1-4.9,22.3,5.7C314,31.4,313.9,42.9,313.9,47.8z M300.8,33.5
		c0.3-3.9-0.7-7-3.6-4.1c-1.2,2.3-0.3,25.2-0.5,28.3c0.4,3.8-0.9,6,2,6.1c2.9-1.1,1.7-3.1,2.1-7.2C300.8,56.7,300.8,33.5,300.8,33.5
		z"/>
	<path d="M345.2,12.7v10.1l-7.8,1.4v40.3l-13.1,2.3
		V26.5l-7.8,1.4V17.8L345.2,12.7z"/>
</g>
</svg>
