<svg xmlns="http://www.w3.org/2000/svg" viewBox="0 0 16 16"><rect width="16" height="16" style="fill:none"/><path d="M.6,12.06c-.28,0-.46-.21-.58-.62a2.44,2.44,0,0,1,0-.54A6.59,6.59,0,0,1,.11,9.81c.06-.4.14-.8.23-1.21s.2-.79.31-1.14A4.35,4.35,0,0,1,1,6.63V6.49H.35V5.71h1l.35-.88.45-1.12H3a2.72,2.72,0,0,1-.21.79c-.14.39-.29.78-.46,1.17H4V6.5H1.94l-.15.36a1,1,0,0,0-.09.21,8.16,8.16,0,0,0-.33.9c-.12.34-.22.73-.35,1a4.7,4.7,0,0,0-.21,1,4,4,0,0,0-.08.85,3.29,3.29,0,0,0,.49-.26l.48-.3c.14-.09.2-.1.2,0h.69a.82.82,0,0,1-.22.51,2.8,2.8,0,0,1-.56.58,4,4,0,0,1-.66.48A1.37,1.37,0,0,1,.6,12.06Z" style="fill:#c7f"/><path d="M7.22,12.13a2.82,2.82,0,0,1-.65-.08,1.88,1.88,0,0,1-.47-.17,4.43,4.43,0,0,1-.55-.51,3.66,3.66,0,0,1-.46-.58h0a1.45,1.45,0,0,1-.18-.49c0-.2-.08-.4-.11-.6H4.35v-1h0a.54.54,0,0,0,.18,0l.32-.1a9.23,9.23,0,0,1,.3-1.46,8,8,0,0,1,.49-1.43,2.76,2.76,0,0,1,.57-.85.64.64,0,0,1,.25-.15,1.53,1.53,0,0,1,.36-.07,2,2,0,0,1,.43,0,1.14,1.14,0,0,1,.61.2,4.43,4.43,0,0,1,.58.49c.18.19.33.36.47.53s.33.51.25.69a.83.83,0,0,1-.2.32l-.2.2A7.68,7.68,0,0,1,7.4,8.27a16.33,16.33,0,0,1-1.59,1l-.27.13a2.81,2.81,0,0,0,0,.41,1.12,1.12,0,0,0,.1.31,1.6,1.6,0,0,0,.23.3,3.8,3.8,0,0,0,.52.46L6.5,11h.94l.88-1,.59.74-1,1.19h0A1,1,0,0,1,7.22,12.13Zm-1.59-4c.31-.14.59-.28.87-.43a4.36,4.36,0,0,0,.82-.55,8,8,0,0,0,.87-.88h0a2.81,2.81,0,0,0-.45-.4.83.83,0,0,0-.49-.21H6.93a.23.23,0,0,1-.25,0,.28.28,0,0,1,0-.18,2.13,2.13,0,0,0-.42.65,6.8,6.8,0,0,0-.34,1A3.89,3.89,0,0,0,5.63,8.18Z" style="fill:#a8f"/><path d="M14,12.24c-.2.09-.32.07-.39-.07a1.1,1.1,0,0,1-.1-.47v-.48a7.72,7.72,0,0,1,.11-1.36c.07-.49.15-1,.25-1.4s.13-.76.21-1.11A.9.9,0,0,1,14.13,7l.06-.35v.1l-.06.08-.1.4h-.11c-.12.21-.23.41-.34.59l-.28.47c-.2.37-.39.74-.58,1.11a9,9,0,0,1-.62,1.09c-.14.2-.28.38-.41.55s-.27.34-.38.51c-.34.49-.57.71-.7.68a.58.58,0,0,1-.24-.32c-.08-.21-.16-.42-.22-.64s-.11-.47-.15-.68a3,3,0,0,1-.05-.42v-.9A4.29,4.29,0,0,1,10,8.38c.06-.29.11-.54.2-.89s.23-.71.37-1.06a5.19,5.19,0,0,1,.52-1,1.87,1.87,0,0,1,.65-.6.53.53,0,0,1,.25,0,1.26,1.26,0,0,1,.57.14c.2.1.4.22.61.35l.55.39A2.16,2.16,0,0,0,14,5h.92q.21,0,.21.06v.14a1.4,1.4,0,0,1,0,.29v.32a.67.67,0,0,1-.06.3,6.26,6.26,0,0,0-.14.73,4,4,0,0,1-.12.76c-.05.25-.13.67-.21,1.05s-.15.79-.21,1.19-.1.79-.12,1.15l.27-.33L15,10l.1-.16.19-.3a.57.57,0,0,1,.11-.16h0l.32.5H16a.36.36,0,0,1-.11.29.68.68,0,0,0-.14.23,1.51,1.51,0,0,1-.18.26c-.17.24-.35.49-.54.74a4.1,4.1,0,0,1-.59.66,1.18,1.18,0,0,1-.29.16ZM10.78,10.7c.15-.21.29-.38.4-.53l.26-.35a7.67,7.67,0,0,0,.63-1.12,9.64,9.64,0,0,1,.54-1l.28-.49.33-.51a7.45,7.45,0,0,0-.6-.52A1,1,0,0,0,12,5.89V5.53a1.34,1.34,0,0,0-.47.53,4.8,4.8,0,0,0-.38.83c-.11.31-.2.62-.28.91a6.16,6.16,0,0,0-.15.75,5,5,0,0,0-.06.77v.82h0a.5.5,0,0,0,.07.24C10.8,10.49,10.76,10.59,10.78,10.7Z" style="fill:#8bf"/></svg>