<svg xmlns="http://www.w3.org/2000/svg" viewBox="0 0 16 16"><rect width="16" height="16" style="fill:none"/><path d="M4.32,5h-1l.18-.49a3.11,3.11,0,0,0,.22-.92V3.12H2.2l-.12.29-.43,1L1.44,5H.32V6.74h.4c0,.1-.07.2-.1.31q-.15.51-.3,1.11c-.09.4-.17.81-.23,1.2A7.52,7.52,0,0,0,0,10.47a3.42,3.42,0,0,0,.05.59c.18.89.74,1,1,1a1.65,1.65,0,0,0,.79-.24,4,4,0,0,0,.73-.51,3.57,3.57,0,0,0,.6-.64,1.25,1.25,0,0,0,.31-.76V9.42h-1a.71.71,0,0,0-.2,0,.78.78,0,0,0-.42.15l-.11.07c.05-.26.11-.54.18-.81s.17-.66.27-1,.21-.58.31-.82l.09-.2,0,0H4.78l0-.48V5Zm-2,4.89a0,0,0,0,0,0,0h0S2.32,9.87,2.32,9.9Z" style="fill:#c7f"/><path d="M7.66,8.15A7.33,7.33,0,0,0,9,6.93l.19-.19a1,1,0,0,0,.24-.37.85.85,0,0,0-.27-.92c-.14-.16-.29-.34-.47-.52a3.39,3.39,0,0,0-.6-.49,1.41,1.41,0,0,0-1.17-.19,2.9,2.9,0,0,0-.38.12.93.93,0,0,0-.31.19,3,3,0,0,0-.6.88,7.85,7.85,0,0,0-.48,1.3A11.23,11.23,0,0,0,4.87,8l-.15.05-.13,0H4.35V9.4l0,.24h.23a1.24,1.24,0,0,0,.23,0l.06.32a2.27,2.27,0,0,0,.19.54l.06.08h0a3.16,3.16,0,0,0,.43.54,3.73,3.73,0,0,0,.57.52,1.76,1.76,0,0,0,.52.2,3.07,3.07,0,0,0,.67.08,1,1,0,0,0,.85-.3L9.29,10.3l-.86-1-1,1.07H7.35l-.37,0-.2,0-.06,0c-.17-.13-.32-.27-.47-.41l-.14-.16,0-.07A1,1,0,0,1,6,9.37a1.12,1.12,0,0,1,0-.2l.14-.06A17.37,17.37,0,0,0,7.66,8.15ZM7.23,5.74h.15a.56.56,0,0,1,.34.14,1.29,1.29,0,0,1,.25.2,6.2,6.2,0,0,1-.67.68,4.66,4.66,0,0,1-.75.5l-.39.19.14-.56A5.76,5.76,0,0,1,6.61,6c0-.11.1-.2.15-.29a.53.53,0,0,0,.39,0Z" style="fill:#a8f"/><path d="M15.63,9.25l-.23-.36-.11-.11h-.23L15,8.85s0,0-.14.2l-.18.28-.09.14a3,3,0,0,0-.18.25,2.51,2.51,0,0,1,0-.27c.05-.38.12-.76.2-1.12s.14-.71.2-1,.08-.5.11-.74a5.63,5.63,0,0,1,.14-.69l.06-.29a1.88,1.88,0,0,0,0-.31,1.32,1.32,0,0,0,0-.34.66.66,0,0,1,0-.11l0-.14-.08-.07a.45.45,0,0,0-.37-.09,7.63,7.63,0,0,1-.88,0h-.24v.24a.73.73,0,0,1-.1.3l-.3-.2a5.7,5.7,0,0,0-.61-.36,1.22,1.22,0,0,0-1.06-.07,1.91,1.91,0,0,0-.71.66,4.94,4.94,0,0,0-.52,1c-.14.35-.26.7-.36,1s-.16.64-.2.89-.05.58-.06.86v.84a2.48,2.48,0,0,0,.05.44c0,.21.09.43.15.67a5.26,5.26,0,0,0,.22.64.66.66,0,0,0,.38.44c.26.07.51-.13.94-.74a4.52,4.52,0,0,1,.34-.46c.14-.17.27-.35.41-.55a11.18,11.18,0,0,0,.61-1.06q.26-.54.54-1l.21-.35c0,.12,0,.25-.08.38q-.14.64-.24,1.35a8.94,8.94,0,0,0-.11,1.33c0,.15,0,.3,0,.48a1.42,1.42,0,0,0,.12.52.45.45,0,0,0,.25.23.34.34,0,0,0,.15,0,.62.62,0,0,0,.25,0L14,12a.86.86,0,0,0,.4-.21,4.29,4.29,0,0,0,.6-.66l.5-.69a1.49,1.49,0,0,0,.2-.31.56.56,0,0,1,.1-.15A.61.61,0,0,0,16,9.49V9.25ZM14,6.41Zm-1.22.06c-.08.12-.15.25-.22.37s-.2.33-.27.46c-.2.34-.37.68-.52,1a6.82,6.82,0,0,1-.59,1L11,9.63l-.07.09V9a5.84,5.84,0,0,1,.06-.7,5,5,0,0,1,.14-.69c.07-.27.15-.55.26-.85A4.46,4.46,0,0,1,11.68,6l.08-.13a.24.24,0,0,0,.19.09.7.7,0,0,1,.42.19Q12.58,6.28,12.79,6.47Z" style="fill:#8bf"/></svg>