<svg xmlns="http://www.w3.org/2000/svg" viewBox="0 0 128 128"><rect width="128" height="128" style="fill:#131415"/><path d="M23,59.42c-1.52,0-2.51-1.15-3-3.43a17.61,17.61,0,0,1-.23-3,39.54,39.54,0,0,1,.5-6q.5-3.31,1.29-6.71c.54-2.26,1.09-4.35,1.68-6.26a44.16,44.16,0,0,1,1.64-4.61l.15-.3a2.47,2.47,0,0,0,.15-.46H21.6V24h5.57q1-2.37,2-4.84c.66-1.65,1.47-3.63,2.44-5.91h4.5a15.62,15.62,0,0,1-1.15,4.38q-1.14,3.16-2.51,6.44c1.62.06,3.25.08,4.88.08H42v4.65h-.15c-1.73,0-3.57,0-5.53,0s-3.92,0-5.91,0c-.35.76-.64,1.41-.87,1.94s-.4.93-.5,1.18q-.91,2.14-1.87,5t-1.67,5.79c-.49,2-.88,3.88-1.19,5.68A29.23,29.23,0,0,0,23.89,53a15,15,0,0,0,2.74-1.41q1.53-.95,2.67-1.68c.76-.48,1.14-.54,1.14-.19h3.82A5.07,5.07,0,0,1,33,52.52,21,21,0,0,1,30,55.76a23.05,23.05,0,0,1-3.74,2.63A7,7,0,0,1,23,59.42Z" style="fill:#c7f"/><path d="M59.57,59.8A15.31,15.31,0,0,1,56,59.38a9.13,9.13,0,0,1-2.6-1,22,22,0,0,1-3-2.79,18.55,18.55,0,0,1-2.51-3.24l-.15-.07a10.54,10.54,0,0,1-1-2.75,26.7,26.7,0,0,1-.49-3.43c-.56.2-1.07.37-1.53.5a4.72,4.72,0,0,1-1,.19h-.15v-6.1h.15a4.47,4.47,0,0,0,1-.27l1.72-.57a56.31,56.31,0,0,1,1.67-8.08,45.71,45.71,0,0,1,2.71-7.29A15.51,15.51,0,0,1,54,19.84,4.83,4.83,0,0,1,55.38,19a14.05,14.05,0,0,1,2-.61,12.94,12.94,0,0,1,2.36-.23,6.12,6.12,0,0,1,3.36,1.1,20.15,20.15,0,0,1,3.2,2.67Q67.81,23.5,69,24.88q2.05,2.28,1.37,3.89a4.79,4.79,0,0,1-1.1,1.71q-.73.72-1.11,1.11a42.73,42.73,0,0,1-7.55,6.9,91.81,91.81,0,0,1-8.77,5.45c-.2.1-.71.33-1.52.68a13.65,13.65,0,0,0,.15,2.29A7.26,7.26,0,0,0,51,48.59q-.08.3,1.26,1.68a24.35,24.35,0,0,0,2.86,2.51l.61.46c.26,0,.76.13,1.53.23a18.12,18.12,0,0,0,2.36.15h1.3l4.88-5.49L69,52l-5.64,6.56h.07C62.72,59.39,61.45,59.8,59.57,59.8ZM50.8,38c1.68-.76,3.27-1.54,4.77-2.32a27.48,27.48,0,0,0,4.53-3.05,35.92,35.92,0,0,0,4.81-4.92l.07-.15a14.28,14.28,0,0,0-2.47-2.22,4.88,4.88,0,0,0-2.79-1.06c-.25,0-.58,0-1,0a2.44,2.44,0,0,0-.76.11c-.66.15-1.12,0-1.37-.34a1.44,1.44,0,0,1-.31-1A12.36,12.36,0,0,0,54,26.63,35.34,35.34,0,0,0,52.14,32C51.6,34,51.16,36,50.8,38Z" style="fill:#c7f"/><path d="M97.08,60.41C96,60.92,95.3,60.79,95,60a6.28,6.28,0,0,1-.61-2.52c0-1-.08-1.85-.08-2.67a50.88,50.88,0,0,1,.61-7.51c.41-2.67.87-5.23,1.37-7.7s.92-4.54,1.22-6.21c.11-.66.21-1.31.31-2s.2-1.28.3-1.94a1.69,1.69,0,0,1-.22.53c-.11.15-.21.31-.31.46L97,32.73h-.23a.22.22,0,0,0-.15-.08.53.53,0,0,1-.23-.07c-.66,1.17-1.3,2.26-1.91,3.28S93.37,37.74,93,38.45q-1.68,3-3.21,6.14a54.64,54.64,0,0,1-3.43,6q-1.14,1.68-2.28,3.09c-.77.94-1.45,1.87-2.06,2.78-1.88,2.7-3.18,3.94-3.89,3.74-.46-.15-.91-.74-1.34-1.75a27.3,27.3,0,0,1-1.18-3.55c-.35-1.35-.63-2.59-.84-3.74a16.43,16.43,0,0,1-.3-2.32c0-1.58,0-3.19,0-4.84a42.75,42.75,0,0,1,.34-4.85,40.66,40.66,0,0,1,1.1-4.91,54.69,54.69,0,0,1,2-5.87A27.09,27.09,0,0,1,80.81,23a9.87,9.87,0,0,1,3.62-3.35,3.76,3.76,0,0,1,1.75-.39,7.28,7.28,0,0,1,3.13.81A25.77,25.77,0,0,1,92.66,22c1.12.76,2.14,1.47,3,2.13a10.29,10.29,0,0,0,1.45-3.81h.15c2.59-.05,4.28-.11,5.07-.19s1.18,0,1.18.34c0,.06,0,.32.08.81a5.24,5.24,0,0,1-.08,1.56c0,.56-.14,1.16-.26,1.79s-.24,1.18-.35,1.64a34.82,34.82,0,0,0-.8,4.12c-.17,1.37-.39,2.77-.64,4.19q-.47,2.59-1.15,5.79t-1.18,6.56q-.5,3.36-.65,6.33c.46-.51,1-1.12,1.49-1.83l2.48-3.35c0-.05.24-.35.57-.88s.67-1.08,1-1.64.56-.86.61-.92h.23l1.75,2.75h1.53a2.2,2.2,0,0,1-.61,1.6,4.32,4.32,0,0,0-.88,1.3,5.93,5.93,0,0,1-1,1.45l-3,4.07a21.85,21.85,0,0,1-3.28,3.63,3.6,3.6,0,0,1-1.6.87A7.6,7.6,0,0,1,97.08,60.41ZM79.24,51.94c.87-1.16,1.6-2.14,2.21-2.93s1.1-1.44,1.45-1.95a41.09,41.09,0,0,0,3.51-6q1.29-2.79,3-5.68.62-1.14,1.53-2.67c.61-1,1.22-2.06,1.83-3.13-1.07-1-2.18-2-3.32-2.89a5.27,5.27,0,0,0-3.24-1.38c-.15,0-.23-.27-.23-.83A5.69,5.69,0,0,1,86,23.35a7.53,7.53,0,0,0-2.63,2.9,27.81,27.81,0,0,0-2.1,4.65q-.92,2.6-1.52,5a38.21,38.21,0,0,0-.84,4.12,33.82,33.82,0,0,0-.35,4.23c0,1.4,0,2.91,0,4.54h-.08c.1.3.23.75.38,1.33S79.14,51.33,79.24,51.94Z" style="fill:#c7f"/><path d="M23.83,71.31V73a5.32,5.32,0,0,1,2-1.36,6.47,6.47,0,0,1,4.94,0,5,5,0,0,1,1.93,1.56,6.5,6.5,0,0,1,4.94-2.07,5.47,5.47,0,0,1,6,6v9.59H39.91V77.86a3.87,3.87,0,0,0-.75-2.59A2.75,2.75,0,0,0,37,74.39a3,3,0,0,0-2.35.93,3.76,3.76,0,0,0-.85,2.62v8.77H30.08v-9a3.6,3.6,0,0,0-.75-2.49,2.82,2.82,0,0,0-2.18-.83,3,3,0,0,0-2.38.93A3.85,3.85,0,0,0,23.92,78v8.71H20.25V71.31Z" style="fill:#a8f"/><path d="M60,76.88v9.83H56.4V85.29a5.71,5.71,0,0,1-1.95,1.23,7.7,7.7,0,0,1-2.52.37,6.24,6.24,0,0,1-4.21-1.25,4.4,4.4,0,0,1-1.44-3.52,4,4,0,0,1,1.52-3.35,7.21,7.21,0,0,1,4.4-1.15h4.12V76.7c0-1.83-1.09-2.75-3.26-2.75a3.5,3.5,0,0,0-2.15.53,1.68,1.68,0,0,0-.66,1.36v.09h-3.5v-.09a4,4,0,0,1,1.74-3.45,7.73,7.73,0,0,1,4.66-1.25,7.64,7.64,0,0,1,5.05,1.48A5.25,5.25,0,0,1,60,76.88Zm-3.64,3.25H52.88a4.6,4.6,0,0,0-2.31.46A1.59,1.59,0,0,0,49.83,82a1.61,1.61,0,0,0,.73,1.42,3.78,3.78,0,0,0,2.17.5c2.39,0,3.59-1,3.59-2.87Z" style="fill:#a8f"/><path d="M66.83,81.94v4.77H63.16V66.28h3.67V77.83l6.25-6.52h4.7l-6.19,6,6.64,9.39H73.58L69,79.81Z" style="fill:#a8f"/><path d="M82.49,80.08c0,2.46,1.26,3.7,3.79,3.7a4.07,4.07,0,0,0,2.09-.48A1.77,1.77,0,0,0,89.3,82l0-.09h3.58v.18a4.63,4.63,0,0,1-2,3.57A7.93,7.93,0,0,1,86.13,87a7.39,7.39,0,0,1-5.34-1.86,7.22,7.22,0,0,1-1.94-5.45V78.33a7.24,7.24,0,0,1,1.9-5.4A7,7,0,0,1,86,71.05a6.52,6.52,0,0,1,7.1,7.19V80H82.49Zm6.9-2.58v-.21A2.87,2.87,0,0,0,88.46,75a3.78,3.78,0,0,0-2.5-.79c-2.18,0-3.33,1.11-3.47,3.32Z" style="fill:#a8f"/><path d="M95.49,82v-.09h3.44v.06a1.63,1.63,0,0,0,.85,1.45,4.9,4.9,0,0,0,2.55.53,5,5,0,0,0,2.38-.44,1.41,1.41,0,0,0,.82-1.3,1.24,1.24,0,0,0-.58-1.1,4.52,4.52,0,0,0-1.88-.53l-2.28-.27A7.18,7.18,0,0,1,97,78.91a3.75,3.75,0,0,1-1.23-3,4.08,4.08,0,0,1,1.72-3.52,7.85,7.85,0,0,1,4.7-1.24A8.2,8.2,0,0,1,107,72.38a4,4,0,0,1,1.75,3.43v.12h-3.41v-.09a1.51,1.51,0,0,0-.8-1.36,4.86,4.86,0,0,0-2.4-.47,4.46,4.46,0,0,0-2.23.43,1.33,1.33,0,0,0-.73,1.22,1.24,1.24,0,0,0,.51,1,3.24,3.24,0,0,0,1.68.5l2.46.3a7.15,7.15,0,0,1,3.94,1.41,3.81,3.81,0,0,1,1.27,3,4.19,4.19,0,0,1-1.85,3.67,8.78,8.78,0,0,1-5,1.28,8.07,8.07,0,0,1-4.88-1.29A4.24,4.24,0,0,1,95.49,82Z" style="fill:#a8f"/><path d="M19.87,110.72h3.52a2,2,0,0,0,1,1.2,4.15,4.15,0,0,0,2.06.43q3.43,0,3.43-3.14v-1.6a5.09,5.09,0,0,1-4.32,1.93,5.67,5.67,0,0,1-4.36-1.78,7.2,7.2,0,0,1-1.65-5.09v-1.19a7,7,0,0,1,1.65-5,5.6,5.6,0,0,1,4.3-1.78,5.55,5.55,0,0,1,4.38,1.93V95h3.62v14a5.82,5.82,0,0,1-1.91,4.61,7.85,7.85,0,0,1-5.32,1.67,8,8,0,0,1-4.59-1.15A4.06,4.06,0,0,1,19.87,110.72Zm9.94-8v-1.22a3.54,3.54,0,0,0-.91-2.57,3.32,3.32,0,0,0-2.49-1,3.09,3.09,0,0,0-2.38.9,3.93,3.93,0,0,0-.85,2.77v.86a4.12,4.12,0,0,0,.82,2.8,2.94,2.94,0,0,0,2.35.93,3.35,3.35,0,0,0,2.53-1A3.51,3.51,0,0,0,29.81,102.73Z" style="fill:#8bf"/><path d="M49.83,100.57v9.83H46.28V109a5.46,5.46,0,0,1-2,1.23,7.42,7.42,0,0,1-2.51.37,6.27,6.27,0,0,1-4.22-1.24,4.4,4.4,0,0,1-1.44-3.52,3.94,3.94,0,0,1,1.53-3.35,7.15,7.15,0,0,1,4.39-1.15h4.12v-.92c0-1.84-1.09-2.75-3.26-2.75a3.4,3.4,0,0,0-2.14.53,1.65,1.65,0,0,0-.67,1.36v.09H36.63v-.09a4,4,0,0,1,1.73-3.45A7.76,7.76,0,0,1,43,94.82a7.7,7.7,0,0,1,5,1.48A5.28,5.28,0,0,1,49.83,100.57Zm-3.64,3.25H42.75a4.53,4.53,0,0,0-2.3.46,1.57,1.57,0,0,0-.74,1.44,1.64,1.64,0,0,0,.72,1.42,3.88,3.88,0,0,0,2.18.5c2.38,0,3.58-1,3.58-2.87Z" style="fill:#8bf"/><path d="M56.61,95v1.66a5.32,5.32,0,0,1,2-1.36A6.18,6.18,0,0,1,61,94.82a6.25,6.25,0,0,1,2.55.52,5,5,0,0,1,1.93,1.56,6.47,6.47,0,0,1,4.94-2.08,5.48,5.48,0,0,1,6,6v9.6H72.69v-8.86A3.85,3.85,0,0,0,71.93,99a2.74,2.74,0,0,0-2.2-.87,3,3,0,0,0-2.36.93,3.78,3.78,0,0,0-.84,2.62v8.77H62.86v-9a3.55,3.55,0,0,0-.76-2.49,2.78,2.78,0,0,0-2.17-.83,3,3,0,0,0-2.38.93,3.83,3.83,0,0,0-.85,2.68v8.71H53V95Z" style="fill:#8bf"/><path d="M83,103.76q0,3.7,3.79,3.71a4.05,4.05,0,0,0,2.08-.48,1.72,1.72,0,0,0,.93-1.33l0-.09h3.59v.18a4.66,4.66,0,0,1-2,3.57,8,8,0,0,1-4.81,1.34,7.43,7.43,0,0,1-5.35-1.86,7.24,7.24,0,0,1-1.94-5.45V102a7.32,7.32,0,0,1,1.9-5.41,7.11,7.11,0,0,1,12.31,5.32v1.78H83Zm6.89-2.57V101a2.85,2.85,0,0,0-.93-2.32,3.71,3.71,0,0,0-2.5-.79c-2.17,0-3.33,1.11-3.46,3.32Z" style="fill:#8bf"/><path d="M96,105.66v-.09H99.4v.06a1.65,1.65,0,0,0,.86,1.45,4.83,4.83,0,0,0,2.54.53,5.09,5.09,0,0,0,2.39-.44,1.41,1.41,0,0,0,.81-1.3,1.24,1.24,0,0,0-.58-1.1,4.37,4.37,0,0,0-1.88-.53l-2.28-.27a7.21,7.21,0,0,1-3.83-1.38,3.73,3.73,0,0,1-1.23-3,4.08,4.08,0,0,1,1.72-3.52,7.86,7.86,0,0,1,4.71-1.25,8.17,8.17,0,0,1,4.82,1.25,4,4,0,0,1,1.75,3.43v.12h-3.41v-.09a1.49,1.49,0,0,0-.79-1.36,4.81,4.81,0,0,0-2.4-.47,4.63,4.63,0,0,0-2.24.42,1.36,1.36,0,0,0-.72,1.23,1.23,1.23,0,0,0,.5,1,3.42,3.42,0,0,0,1.69.5l2.45.3a7.15,7.15,0,0,1,3.94,1.4,3.85,3.85,0,0,1,1.28,3,4.17,4.17,0,0,1-1.86,3.67,8.74,8.74,0,0,1-5,1.27,8.19,8.19,0,0,1-4.89-1.28A4.26,4.26,0,0,1,96,105.66Z" style="fill:#8bf"/></svg>